<?xml version="1.0" standalone="no"?>
<!DOCTYPE svg PUBLIC "-//W3C//DTD SVG 20010904//EN"
 "http://www.w3.org/TR/2001/REC-SVG-20010904/DTD/svg10.dtd">
<svg version="1.0" xmlns="http://www.w3.org/2000/svg"
 width="3556.000000pt" height="3556.000000pt" viewBox="0 0 3556.000000 3556.000000"
 preserveAspectRatio="xMidYMid meet">
<metadata>
Created by potrace 1.14, written by Peter Selinger 2001-2017
</metadata>
<g transform="translate(0.000000,3556.000000) scale(0.100000,-0.100000)"
fill="#000000" stroke="none">
<path d="M8370 25005 c0 -6 -59 -11 -153 -12 -149 -3 -303 -11 -342 -19 -11
-3 -37 -5 -57 -5 -21 -1 -38 -5 -38 -9 0 -3 -6 -7 -14 -7 -8 0 -37 -9 -64 -21
-28 -12 -59 -23 -69 -25 -10 -1 -22 -5 -28 -9 -5 -3 -26 -9 -45 -13 -19 -4
-46 -12 -60 -18 -14 -5 -31 -11 -37 -13 -7 -1 -35 -18 -61 -38 -27 -20 -52
-33 -56 -29 -3 3 -6 1 -6 -5 0 -7 -9 -12 -20 -12 -11 0 -29 -9 -39 -19 -11
-11 -22 -17 -25 -14 -5 6 -11 1 -76 -57 -24 -22 -47 -40 -51 -40 -13 0 -69
-51 -65 -59 3 -3 -18 -22 -44 -41 -27 -19 -52 -44 -56 -55 -4 -11 -14 -25 -23
-32 -9 -7 -13 -13 -9 -13 3 0 -13 -19 -35 -43 -23 -24 -53 -67 -67 -97 -14
-30 -28 -57 -33 -58 -4 -2 -5 -7 -3 -11 3 -4 -8 -22 -24 -40 -17 -18 -30 -41
-30 -51 0 -10 -5 -22 -11 -25 -6 -4 -8 -13 -5 -21 3 -7 1 -16 -4 -19 -6 -4
-10 -15 -10 -26 0 -10 -4 -19 -9 -19 -4 0 -6 -11 -3 -25 3 -16 0 -25 -9 -25
-7 0 -9 -3 -6 -7 4 -3 3 -11 -1 -17 -12 -16 -47 -110 -44 -118 1 -5 -2 -8 -7
-8 -4 0 -7 -12 -7 -27 1 -16 -2 -38 -6 -50 -5 -16 -4 -23 5 -23 9 0 9 -2 0 -8
-7 -4 -15 -26 -18 -47 -3 -22 -5 -1559 -4 -3415 0 -1856 0 -3382 0 -3390 0 -8
0 -46 0 -85 1 -38 1 -77 1 -85 -4 -111 0 -4464 3 -4487 3 -18 7 -45 10 -60 2
-16 7 -53 10 -83 4 -30 10 -57 14 -60 4 -3 13 -25 21 -50 8 -25 17 -47 20 -50
5 -4 32 -88 43 -135 1 -5 6 -16 10 -22 5 -7 5 -13 0 -13 -4 0 -3 -4 2 -8 6 -4
21 -27 34 -52 13 -25 42 -79 64 -120 22 -41 43 -77 46 -80 4 -3 23 -27 42 -55
47 -68 49 -70 94 -120 63 -69 93 -105 87 -105 -4 0 5 -8 18 -17 14 -10 28 -17
32 -16 4 2 10 -6 13 -17 4 -11 11 -18 16 -15 5 4 9 -1 9 -10 0 -9 4 -13 10
-10 6 3 10 -1 10 -9 0 -9 7 -16 15 -16 7 0 18 -6 22 -13 10 -16 96 -72 106
-69 4 1 7 -3 7 -8 0 -6 6 -10 13 -10 7 0 19 -9 27 -19 7 -11 17 -18 22 -15 4
3 8 0 8 -5 0 -6 3 -10 8 -9 4 1 18 -4 30 -11 13 -7 34 -15 47 -17 13 -2 54
-18 91 -35 37 -17 72 -32 78 -34 6 -1 19 -5 29 -10 10 -4 21 -5 24 -1 3 3 12
1 20 -6 7 -6 16 -8 20 -5 3 3 17 0 32 -7 14 -7 41 -12 59 -11 17 2 32 -1 32
-6 0 -5 10 -7 23 -5 12 2 32 0 45 -5 14 -6 22 -5 22 2 0 8 4 8 13 2 14 -11
449 -15 442 -4 -2 4 25 7 61 6 35 -1 64 2 64 7 0 4 11 6 25 4 13 -3 27 -1 30
4 5 8 92 26 108 22 4 -1 7 2 7 7 0 6 9 8 20 6 11 -2 20 0 20 6 0 5 3 8 8 8 14
-3 72 23 72 33 0 5 5 6 10 3 6 -3 10 -2 10 4 0 5 9 8 20 6 11 -2 20 1 20 6 0
5 6 9 13 8 6 -1 25 3 40 9 16 7 33 12 38 12 5 0 9 4 9 10 0 5 3 9 8 8 13 -2
47 15 59 31 7 9 13 13 13 9 0 -5 9 1 20 12 12 12 25 18 30 15 6 -4 10 -2 10 4
0 5 8 12 19 16 23 7 112 83 206 175 85 83 105 107 98 114 -4 3 -1 6 5 6 7 0
12 6 12 14 0 8 14 26 30 39 16 14 30 30 30 36 0 6 5 11 10 11 6 0 10 7 10 15
0 8 5 15 11 15 5 0 7 5 4 10 -3 6 -1 10 6 10 7 0 9 3 6 6 -4 4 2 19 13 34 11
16 20 33 20 40 0 6 4 9 8 6 14 -8 81 140 98 217 1 4 3 9 4 12 1 3 3 11 4 18 1
6 7 11 14 10 7 -2 13 4 13 12 2 16 5 32 9 40 1 3 4 10 5 15 1 6 4 12 5 15 1 3
4 10 5 15 1 6 3 11 5 13 10 13 37 175 42 260 1 15 4 27 8 27 3 0 6 621 5 1381
0 759 2 1384 5 1388 7 10 1360 9 1360 -1 0 -4 6 -8 13 -8 7 0 28 -16 47 -35
19 -19 31 -35 27 -35 -3 0 19 -25 49 -55 31 -30 60 -55 64 -55 5 0 12 -9 15
-21 4 -11 30 -44 58 -73 29 -29 66 -69 82 -89 17 -20 37 -39 46 -42 8 -3 26
-23 40 -45 13 -22 32 -42 42 -45 9 -4 17 -10 17 -15 0 -5 8 -11 18 -14 11 -4
25 -18 33 -33 15 -30 108 -123 121 -123 5 0 7 -4 4 -8 -3 -5 33 -48 80 -97 46
-49 84 -93 84 -97 0 -4 7 -8 15 -8 8 0 15 -7 15 -15 0 -8 7 -15 15 -15 8 0 15
-5 15 -11 0 -6 21 -32 48 -58 26 -25 58 -62 72 -81 13 -19 33 -42 43 -50 11
-8 27 -24 36 -34 9 -11 44 -49 79 -85 34 -36 62 -69 62 -73 0 -5 7 -8 16 -8 8
0 13 -4 10 -8 -3 -5 18 -31 47 -59 29 -27 63 -65 77 -84 24 -32 45 -55 200
-217 39 -39 70 -76 70 -80 0 -4 12 -16 27 -27 39 -30 73 -68 67 -77 -3 -4 -1
-8 4 -8 10 0 76 -66 132 -132 17 -20 40 -40 51 -43 11 -4 17 -11 14 -16 -4 -5
1 -12 9 -15 9 -3 16 -11 16 -18 0 -7 16 -27 36 -46 20 -19 48 -47 64 -62 15
-14 29 -30 31 -35 2 -5 23 -24 46 -43 24 -18 41 -36 38 -38 -3 -3 4 -12 15
-19 11 -8 19 -17 17 -21 -3 -4 15 -23 39 -42 23 -19 45 -42 48 -50 8 -21 84
-100 96 -100 5 0 10 -4 10 -8 0 -15 74 -92 88 -92 9 0 13 -3 9 -6 -3 -3 32
-45 79 -92 46 -47 84 -88 84 -91 0 -4 9 -13 20 -21 11 -8 20 -18 20 -22 0 -12
44 -53 52 -51 7 3 11 -13 6 -20 -2 -2 15 -19 37 -38 22 -18 44 -40 49 -47 4
-8 17 -21 28 -31 11 -9 25 -21 32 -28 6 -6 81 -84 166 -173 85 -89 196 -203
245 -254 50 -50 99 -104 110 -119 11 -15 25 -27 32 -27 7 0 21 -12 30 -27 10
-15 55 -65 101 -111 45 -46 82 -88 82 -93 0 -5 7 -9 15 -9 8 0 15 -3 15 -7 0
-5 30 -39 65 -78 36 -38 82 -92 103 -118 23 -30 47 -50 65 -54 15 -3 27 -8 27
-12 0 -3 47 -6 105 -6 58 0 105 4 105 8 0 5 5 5 11 2 18 -12 59 -13 59 -1 0 7
3 7 8 1 8 -11 52 -16 52 -5 0 4 7 7 15 7 8 0 15 -5 15 -10 0 -5 6 -4 14 2 8 7
17 8 20 3 4 -7 51 -9 51 -2 0 7 67 5 71 -2 3 -5 11 -5 17 -1 20 13 6851 11
6859 -1 6 -8 8 -8 8 0 0 11 64 13 76 2 4 -4 15 -3 25 2 12 7 20 7 24 0 4 -7
13 -7 24 0 12 6 22 5 29 -2 7 -7 12 -8 12 -2 0 5 14 9 30 9 17 0 30 -4 30 -9
0 -5 7 -3 15 4 12 10 15 10 15 0 0 -10 3 -10 14 -1 11 9 16 9 21 0 6 -8 9 -8
15 1 5 8 13 9 21 4 17 -10 49 -13 49 -4 0 8 32 6 47 -3 6 -4 14 -1 16 5 4 10
6 9 6 -1 1 -11 4 -11 16 -1 12 10 15 10 15 -1 0 -12 2 -12 9 0 6 9 10 10 16 2
5 -9 10 -9 21 0 8 6 14 7 14 2 0 -5 9 -9 20 -9 11 0 20 3 20 6 0 3 9 6 20 6
11 0 20 -4 20 -9 0 -5 7 -4 15 3 8 7 15 9 15 4 0 -5 11 -9 25 -9 14 0 25 2 25
5 0 3 9 6 20 6 11 0 20 -4 20 -9 0 -5 6 -4 14 2 10 9 16 9 21 1 5 -8 11 -8 21
1 8 6 14 7 14 2 0 -5 7 -10 15 -10 8 0 15 5 15 11 0 6 4 6 11 -1 8 -8 20 -8
34 -3 13 5 26 6 29 3 10 -10 71 -9 79 1 5 8 9 8 15 1 9 -14 75 -13 84 0 5 7 8
7 8 0 0 -5 11 -10 25 -10 14 0 25 4 25 9 0 6 5 5 11 -1 8 -8 20 -8 35 -3 13 5
24 6 24 1 0 -12 33 -9 42 4 5 6 8 5 8 -3 0 -9 5 -10 19 -3 10 6 21 8 24 5 8
-8 67 -11 67 -4 0 9 32 6 48 -4 7 -4 12 -2 12 5 0 7 4 8 13 2 14 -11 27 -11
45 0 7 5 12 3 12 -4 0 -8 4 -8 15 1 10 8 15 9 15 1 0 -7 8 -8 25 -1 14 5 27 5
30 1 6 -10 24 -9 41 2 6 3 14 3 18 -1 11 -10 30 -9 38 3 5 6 8 6 8 -2 0 -9 7
-10 23 -4 13 5 30 5 37 1 8 -5 22 -4 31 1 12 6 20 5 24 -1 4 -6 11 -8 16 -4
15 9 88 10 82 2 -7 -13 12 -9 25 4 9 9 12 9 12 -1 0 -11 3 -11 15 -1 11 9 15
9 15 1 0 -9 5 -9 20 -1 15 8 20 8 20 -1 0 -8 4 -8 15 1 10 8 15 9 15 1 0 -7 8
-8 25 -1 17 7 25 6 25 -1 0 -8 4 -8 14 0 10 9 16 9 21 1 5 -8 11 -8 21 1 11 9
14 9 14 -1 0 -9 3 -10 13 -1 8 6 17 8 20 4 9 -8 57 -11 57 -3 0 9 32 6 48 -4
7 -4 19 -2 27 4 12 10 15 10 15 0 0 -10 3 -10 15 0 11 9 15 9 15 1 0 -9 5 -9
20 -1 15 8 20 8 20 -1 0 -9 3 -9 14 0 9 8 16 8 20 2 4 -6 18 -6 36 -1 21 6 30
5 30 -3 0 -8 3 -8 8 -2 8 11 77 14 87 3 4 -4 16 -3 26 3 14 7 19 6 19 -3 0 -9
3 -9 8 -2 8 11 90 13 108 2 6 -4 14 -4 18 -1 10 10 206 11 212 1 3 -5 11 -5
17 -1 7 5 676 8 1487 9 812 0 1481 4 1488 8 7 4 12 2 12 -6 0 -9 3 -9 8 -2 4
6 14 11 22 12 8 0 40 5 70 12 30 7 62 13 72 14 9 1 22 7 30 13 7 6 24 14 38
18 14 4 35 14 48 21 12 8 27 12 32 9 6 -3 10 -1 10 5 0 6 6 10 13 9 19 -2 57
12 57 22 0 5 3 8 8 7 9 -3 56 13 62 21 9 11 65 48 100 66 34 17 41 22 88 65
12 11 27 20 32 20 6 0 10 5 10 10 0 6 7 10 15 10 8 0 15 5 15 10 0 6 7 10 15
10 8 0 15 4 15 8 0 4 33 42 73 83 98 101 127 137 181 219 26 38 51 70 57 70 6
0 7 5 4 10 -3 6 -1 10 5 10 6 0 9 4 5 9 -3 5 -1 12 5 16 10 6 40 67 45 91 2 5
12 28 23 50 11 21 30 59 43 84 13 25 26 47 29 50 3 3 5 12 5 20 -1 8 3 20 8
27 5 7 6 17 3 22 -4 5 -2 12 3 16 6 3 13 26 17 50 3 25 10 45 14 45 5 0 7 8 5
18 -1 9 2 23 8 30 5 6 6 12 2 12 -4 0 0 11 9 25 9 13 16 38 16 55 0 22 4 29
13 24 9 -6 9 -5 0 7 -9 11 -9 19 -2 26 5 5 11 39 12 74 1 35 7 67 12 71 6 5 5
8 -3 8 -9 0 -10 5 -2 19 7 14 6 21 -3 25 -9 5 -9 7 1 12 10 5 10 9 1 20 -9 11
-9 14 0 14 7 0 9 5 5 12 -11 17 -11 58 -1 58 4 0 5 6 0 13 -4 6 -9 50 -11 97
-3 109 -5 120 -14 114 -4 -3 -8 16 -8 41 0 28 -4 44 -10 40 -5 -3 -11 -1 -11
4 -3 20 -4 26 -12 37 -4 7 -6 23 -6 35 1 22 -13 72 -31 109 -4 8 -6 23 -4 33
1 9 -2 17 -6 17 -5 0 -7 9 -5 20 2 11 0 20 -4 20 -5 0 -12 10 -16 23 -4 12 -8
25 -10 30 -6 18 -7 22 -6 29 0 4 -5 5 -13 2 -8 -3 -19 11 -31 43 -25 68 -74
152 -96 166 -10 6 -19 17 -19 24 0 7 -4 13 -10 13 -5 0 -10 6 -10 14 0 19 -79
106 -96 106 -8 0 -13 3 -12 8 1 4 -8 23 -20 42 -12 19 -22 32 -22 28 0 -9 -41
26 -111 95 -32 31 -63 57 -68 57 -6 0 -21 10 -35 23 -52 47 -70 59 -139 95
-40 20 -94 51 -121 69 -26 17 -55 29 -62 26 -8 -3 -14 0 -14 7 0 6 -4 9 -9 5
-5 -3 -12 -1 -16 5 -3 5 -15 10 -25 10 -10 0 -31 5 -47 12 -15 6 -32 12 -38
13 -5 1 -12 3 -15 4 -3 2 -16 4 -30 6 -34 5 -111 25 -130 33 -8 4 -67 7 -132
7 -68 0 -114 3 -111 9 4 5 0 6 -8 0 -20 -12 -799 -12 -791 1 3 6 0 6 -9 -1
-10 -7 -394 -10 -1294 -9 -704 2 -1282 4 -1285 5 -3 1 -9 1 -15 0 -31 -7 -75
-4 -75 5 0 7 -3 7 -8 0 -4 -5 -23 -10 -42 -10 -19 0 -38 5 -42 10 -5 7 -8 7
-8 0 0 -5 -19 -9 -42 -8 -120 7 -288 7 -288 1 0 -4 -6 -5 -12 -3 -24 9 -88 12
-88 5 0 -4 -18 -4 -40 0 -22 4 -40 4 -40 -1 0 -4 -13 -4 -30 1 -19 5 -32 5
-36 -2 -4 -6 -10 -5 -15 3 -8 12 -11 11 -19 -1 -8 -12 -10 -12 -10 -1 0 10 -3
11 -14 2 -11 -9 -15 -9 -19 1 -4 10 -8 10 -16 -2 -8 -12 -11 -12 -11 -1 0 10
-3 11 -14 2 -11 -9 -15 -9 -19 1 -4 10 -8 10 -16 -2 -6 -8 -11 -10 -11 -5 0 6
-27 10 -62 9 -35 0 -75 3 -89 7 -14 3 -33 2 -42 -3 -10 -5 -17 -5 -17 0 0 5
-7 9 -15 9 -8 0 -12 -4 -9 -9 8 -12 -10 -10 -30 5 -17 12 -16 15 16 39 18 14
43 36 56 47 12 12 22 20 22 17 0 -3 22 16 49 42 26 26 58 54 71 62 13 8 33 26
44 39 50 56 74 81 80 81 4 0 20 14 36 30 16 16 27 30 24 30 -3 0 9 12 27 28
30 25 72 66 117 117 10 11 32 31 49 45 16 14 40 40 53 58 13 17 28 32 33 32 9
0 44 34 88 86 21 25 55 48 63 43 3 -2 15 10 26 28 44 73 11 68 455 66 264 -1
404 2 413 9 8 7 12 7 12 -1 0 -7 5 -9 11 -5 12 7 108 14 241 17 38 1 68 5 68
10 0 4 15 7 33 7 17 1 61 7 97 15 35 7 68 11 72 9 3 -2 9 0 13 6 4 6 11 8 16
5 5 -4 15 -3 22 2 6 4 17 8 22 10 6 1 35 9 65 18 30 9 70 16 88 17 17 1 32 5
32 9 0 4 8 7 18 7 19 -2 121 21 137 31 6 3 21 7 35 9 14 2 27 7 28 13 2 5 8 7
13 3 5 -3 9 -1 9 5 0 5 15 13 33 16 17 4 37 10 42 13 11 7 27 11 60 15 11 1
22 5 25 8 5 6 80 28 110 32 8 2 47 19 85 39 39 20 91 41 115 48 25 6 52 14 60
17 8 3 22 8 30 10 8 2 20 5 25 6 6 2 33 17 60 35 28 17 58 32 68 32 9 0 17 5
17 11 0 5 4 8 8 5 4 -2 26 4 49 14 23 10 44 16 47 12 3 -3 6 -1 6 5 0 10 49
38 63 35 4 -1 7 5 7 13 0 8 7 15 15 15 8 0 15 5 15 11 0 5 5 7 10 4 6 -4 17
-1 25 5 8 7 15 9 15 6 0 -4 7 0 16 8 8 9 22 16 30 16 8 0 14 5 14 10 0 6 6 10
14 10 8 0 16 3 18 8 2 4 21 20 42 36 22 16 36 23 31 15 -6 -10 -3 -9 11 2 10
9 34 24 52 33 18 10 42 26 52 36 11 11 41 32 68 47 27 15 72 48 101 73 28 25
55 45 60 45 17 0 121 91 121 106 0 5 7 9 15 9 8 0 15 5 15 10 0 6 4 10 10 10
5 0 34 23 64 51 30 28 65 59 77 68 11 9 50 44 85 79 35 34 69 62 76 62 6 0 9
3 5 6 -3 3 11 23 31 44 21 21 45 48 54 61 10 13 18 20 18 16 0 -4 21 18 47 50
26 32 58 70 72 85 42 43 71 77 71 82 0 3 15 21 33 39 17 19 41 46 52 61 11 15
25 32 31 39 6 6 11 15 12 20 4 19 36 57 48 57 8 0 14 4 14 8 0 5 9 19 20 32
11 13 20 29 20 37 0 7 4 13 10 13 5 0 9 4 7 9 -1 5 9 19 23 32 30 29 83 109
73 109 -5 0 0 5 10 11 9 5 17 18 17 28 0 9 10 27 23 39 35 33 47 50 47 67 0 8
4 15 9 15 5 0 12 12 16 28 3 15 13 34 20 42 7 8 15 22 17 30 2 8 10 20 18 26
15 11 23 26 85 156 14 31 33 59 41 62 9 3 12 10 9 16 -3 5 -1 10 4 10 6 0 10
3 9 8 0 4 6 24 15 44 10 21 17 44 17 53 0 8 5 15 12 15 6 0 8 3 5 7 -6 5 28
70 43 83 16 13 58 123 65 170 0 3 4 11 8 18 5 6 5 17 2 22 -3 6 -1 10 4 10 6
0 11 7 11 15 0 8 5 14 11 12 6 -1 13 9 15 22 3 14 8 29 13 35 5 6 14 31 21 56
6 25 14 52 17 60 4 8 8 22 9 30 1 8 6 26 9 40 4 14 9 40 12 57 3 18 9 30 14
27 5 -3 6 3 2 12 -4 11 1 22 12 30 10 8 15 14 11 14 -5 0 -3 7 4 15 7 8 10 15
6 15 -3 0 1 17 10 38 9 20 18 48 19 62 2 14 4 25 5 25 1 0 4 14 6 30 3 32 18
103 29 145 4 14 8 39 10 55 2 17 6 41 10 55 4 14 8 33 8 42 1 9 5 14 9 12 7
-5 13 55 9 80 -1 5 3 12 8 15 10 6 20 76 26 191 2 30 5 55 6 55 1 0 3 20 4 45
2 25 6 65 9 90 6 52 7 940 1 1015 -2 28 -7 82 -10 120 -3 39 -8 88 -9 110 -2
22 -5 40 -6 40 -1 0 -4 29 -7 65 -7 104 -8 110 -15 110 -5 0 -8 18 -8 39 0 22
-5 41 -12 43 -7 3 -13 18 -14 34 -1 16 -3 29 -4 29 -1 0 -3 18 -5 41 -1 22 -7
49 -12 60 -6 10 -14 42 -19 69 -4 28 -9 59 -11 70 -2 11 -4 28 -4 38 0 9 -5
17 -11 17 -6 0 -8 9 -5 20 3 10 0 21 -7 23 -6 2 -11 10 -12 18 0 8 -2 28 -3
44 -1 23 -3 27 -11 15 -5 -8 -10 -12 -10 -7 0 4 -9 42 -21 85 -11 42 -22 85
-24 94 -11 52 -40 144 -49 154 -6 6 -20 28 -30 50 -10 21 -23 47 -27 56 -5 10
-9 22 -9 27 0 5 -8 26 -17 47 -9 22 -18 50 -20 64 -3 14 -8 27 -14 28 -5 2 -9
9 -9 15 0 7 -11 22 -25 35 -13 13 -24 27 -23 30 1 7 -4 22 -30 82 -8 19 -16
37 -16 40 -3 14 -49 80 -56 80 -5 0 -14 17 -20 38 -18 56 -56 129 -81 154 -12
13 -37 56 -56 96 -20 39 -42 72 -50 72 -8 0 -11 5 -8 10 3 6 3 10 -2 10 -9 0
-47 62 -45 73 1 4 -3 7 -9 7 -5 0 -7 5 -4 10 3 6 2 10 -4 10 -5 0 -13 10 -17
23 -3 12 -14 29 -23 38 -33 33 -60 69 -77 101 -9 18 -33 49 -53 68 -20 20 -43
49 -51 65 -17 34 -91 111 -102 108 -5 -2 -8 3 -8 10 0 7 -9 23 -20 35 -11 12
-20 24 -20 26 0 3 -25 30 -55 61 -31 30 -53 55 -51 55 2 0 -21 25 -51 55 -31
30 -60 55 -64 55 -5 0 -9 4 -9 10 0 11 -59 70 -71 70 -4 0 -11 9 -14 21 -4 11
-9 18 -12 16 -2 -3 -12 2 -22 11 -9 9 -41 37 -71 62 -30 25 -68 59 -86 75 -51
48 -112 95 -124 95 -6 0 -34 23 -62 50 -28 28 -53 48 -55 46 -5 -5 -34 18 -86
67 -17 15 -35 27 -42 27 -7 0 -18 7 -25 15 -7 8 -31 23 -54 33 -23 11 -56 34
-74 52 -18 18 -36 30 -39 26 -3 -3 -11 1 -17 10 -6 8 -21 16 -34 17 -12 0 -22
4 -22 7 0 3 -21 18 -48 35 -26 16 -50 34 -54 40 -5 6 -8 6 -8 0 0 -6 -3 -5 -8
1 -4 6 -36 25 -72 43 -88 42 -144 74 -148 84 -2 4 -12 7 -22 7 -10 0 -20 4
-22 9 -1 5 -14 11 -28 13 -14 1 -33 10 -43 18 -10 8 -21 16 -25 16 -26 5 -52
18 -52 26 0 5 -4 6 -10 3 -5 -3 -10 -2 -10 2 0 9 -69 39 -82 35 -5 -1 -8 3 -8
9 0 5 -8 9 -17 8 -20 -2 -28 0 -130 44 -40 17 -73 33 -73 37 0 5 -11 8 -65 13
-14 1 -25 5 -25 8 0 3 -6 6 -12 7 -46 6 -128 28 -128 34 0 4 -9 5 -20 3 -11
-2 -20 0 -20 6 0 5 -9 9 -20 9 -10 0 -24 8 -29 18 -8 13 -10 14 -11 2 0 -12
-2 -12 -9 -2 -4 8 -11 13 -15 13 -3 -1 -7 -1 -8 0 -14 4 -47 10 -65 12 -13 1
-23 5 -23 8 0 3 -6 6 -12 6 -16 1 -132 21 -173 30 -16 3 -42 6 -57 7 -16 0
-28 3 -28 6 0 3 -17 7 -37 8 -21 1 -67 6 -103 12 -36 6 -73 11 -82 11 -10 0
-18 4 -18 9 0 4 -8 7 -17 6 -10 -2 -21 2 -25 8 -5 8 -8 7 -8 -2 0 -8 -5 -10
-12 -5 -7 4 -49 9 -93 11 -158 7 -1070 16 -1100 11 -5 -1 -14 0 -20 1 -5 1
-28 2 -50 1 -62 -2 -64 -2 -171 0 -56 1 -106 -1 -113 -5 -6 -4 -11 -4 -11 1 0
4 -256 8 -570 9 -370 0 -567 -3 -563 -9 4 -6 1 -7 -8 -1 -21 13 -560 13 -552
0 5 -8 3 -8 -8 0 -17 13 -1097 13 -1118 0 -8 -6 -12 -5 -8 0 3 6 -126 9 -329
9 -184 0 -334 -4 -334 -8 0 -4 -8 -4 -17 1 -22 10 -335 8 -351 -2 -7 -4 -12
-4 -12 1 0 8 -328 8 -596 -1 -202 -7 -229 -9 -247 -25 -9 -7 -20 -10 -25 -7
-5 3 -20 -1 -35 -9 -21 -11 -70 -26 -97 -30 -3 0 -9 -3 -15 -7 -5 -3 -37 -11
-70 -19 -33 -7 -73 -19 -88 -26 -16 -8 -31 -12 -34 -9 -5 5 -17 -4 -51 -35 -9
-8 -33 -21 -52 -28 -80 -30 -150 -67 -150 -80 0 -8 -3 -12 -6 -9 -3 3 -17 -5
-31 -18 -14 -13 -32 -24 -39 -24 -8 0 -14 -5 -14 -10 0 -6 -3 -9 -7 -8 -13 4
-47 -25 -72 -59 -12 -18 -26 -33 -31 -33 -12 0 -75 -63 -83 -83 -3 -9 -11 -17
-17 -17 -6 0 -8 -4 -5 -10 3 -5 0 -10 -7 -10 -17 0 -43 -31 -70 -81 -11 -21
-33 -53 -49 -70 -15 -16 -31 -40 -35 -52 -4 -12 -10 -24 -15 -27 -5 -3 -10
-17 -11 -30 -2 -14 -6 -27 -9 -30 -3 -3 -16 -33 -28 -68 -13 -34 -30 -66 -37
-70 -7 -4 -15 -16 -17 -27 -2 -11 -7 -27 -10 -35 -13 -31 -30 -113 -42 -205
-1 -11 -3 -20 -4 -20 -6 0 -14 -54 -15 -92 -1 -24 -4 -43 -8 -43 -4 0 -6 -88
-6 -195 0 -107 4 -195 7 -195 4 0 6 -14 5 -30 -1 -17 2 -32 6 -35 5 -3 7 -14
5 -25 -2 -11 0 -20 5 -20 5 0 8 -18 6 -40 -2 -22 1 -43 6 -46 5 -3 8 -16 7
-27 -1 -12 0 -29 3 -37 3 -8 12 -37 21 -64 9 -26 14 -52 11 -57 -3 -5 -1 -9 4
-9 8 0 44 -62 47 -80 3 -20 93 -188 98 -183 4 3 7 0 7 -8 0 -8 9 -21 20 -29
11 -8 20 -20 20 -26 0 -6 9 -23 21 -38 11 -14 18 -26 14 -26 -4 0 0 -7 9 -15
8 -8 17 -15 21 -15 8 0 35 -27 35 -35 0 -3 6 -13 13 -22 21 -26 97 -105 97
-100 0 2 19 -14 43 -37 36 -35 99 -84 156 -121 15 -10 27 -19 53 -41 8 -6 19
-9 26 -6 6 2 12 -1 12 -8 0 -6 4 -9 9 -6 5 3 53 -17 107 -45 55 -28 113 -53
129 -55 50 -7 60 -9 70 -16 6 -3 39 -9 75 -13 36 -4 74 -9 85 -12 11 -2 1300
-4 2865 -5 1565 0 2850 -4 2855 -8 6 -4 18 -6 28 -5 9 2 17 0 17 -4 0 -4 6 -8
13 -9 23 -1 112 -19 112 -22 0 -1 11 -3 25 -5 45 -6 75 -13 100 -23 14 -5 28
-10 33 -10 44 -3 194 -64 208 -85 4 -5 18 -10 33 -10 14 -1 26 -5 26 -8 0 -3
16 -11 35 -19 19 -8 35 -17 35 -22 0 -4 6 -8 13 -8 7 0 23 -9 34 -19 12 -11
24 -17 27 -14 3 4 6 2 6 -4 0 -6 24 -24 53 -41 28 -16 68 -44 86 -61 19 -18
47 -39 61 -46 15 -8 40 -29 57 -47 16 -18 50 -52 76 -76 26 -23 46 -45 46 -48
-1 -4 19 -27 43 -53 25 -25 49 -56 52 -69 4 -12 11 -20 16 -17 5 3 11 -3 14
-13 4 -10 20 -34 36 -52 16 -18 28 -36 25 -38 -3 -3 4 -12 15 -19 11 -8 18
-19 15 -24 -3 -5 -1 -14 5 -21 25 -30 77 -127 71 -134 -3 -4 -1 -4 5 -1 13 7
24 -13 24 -44 0 -10 4 -19 8 -19 5 0 9 -6 10 -12 0 -7 7 -31 16 -53 8 -22 15
-47 16 -56 0 -9 6 -19 14 -22 7 -3 16 -20 20 -39 3 -18 12 -44 19 -58 7 -14
12 -37 12 -52 -1 -16 2 -28 8 -28 5 0 6 -7 3 -16 -3 -8 -2 -23 3 -32 5 -10 11
-58 14 -107 5 -99 14 -154 28 -171 5 -6 6 -14 2 -17 -8 -9 -11 -57 -3 -57 3 0
6 -9 6 -20 0 -11 -3 -20 -6 -20 -4 0 -7 -12 -7 -27 0 -16 -4 -41 -8 -58 -4
-16 -9 -68 -11 -115 -5 -106 -11 -176 -19 -215 -3 -16 -7 -43 -10 -60 -6 -51
-38 -160 -47 -163 -4 -2 -8 -11 -8 -20 0 -8 -3 -12 -7 -8 -6 5 -22 -44 -38
-114 -2 -8 -4 -16 -5 -17 -2 -2 -3 -7 -4 -11 -5 -33 -52 -122 -64 -122 -9 0
-13 -3 -9 -6 3 -3 -4 -23 -17 -43 -13 -20 -26 -48 -30 -64 -3 -15 -25 -47 -48
-70 -23 -23 -42 -45 -43 -49 -1 -20 -52 -88 -77 -102 -16 -10 -26 -22 -23 -27
4 -5 -1 -9 -9 -9 -8 0 -17 -9 -21 -19 -3 -11 -13 -22 -21 -25 -8 -3 -12 -10
-9 -16 3 -5 1 -10 -5 -10 -6 0 -40 -29 -77 -65 -36 -35 -69 -63 -72 -61 -4 3
-18 -9 -31 -26 -27 -34 -92 -78 -115 -78 -8 0 -15 -4 -15 -10 0 -5 -7 -10 -15
-10 -8 0 -19 -9 -25 -20 -6 -11 -15 -18 -20 -15 -5 3 -18 -2 -29 -12 -37 -34
-49 -42 -55 -36 -3 3 -11 1 -18 -4 -7 -6 -35 -18 -62 -28 -26 -10 -54 -24 -61
-31 -7 -7 -25 -15 -41 -18 -15 -3 -30 -9 -33 -13 -6 -8 -23 -14 -56 -18 -11
-1 -20 -4 -20 -5 0 -2 -16 -4 -35 -6 -19 -1 -64 -7 -100 -13 -36 -6 -71 -11
-78 -11 -7 0 -11 -4 -8 -8 2 -4 -15 -7 -40 -7 -24 1 -44 -3 -44 -7 0 -5 -8 -4
-19 1 -10 6 -22 7 -26 3 -11 -12 -295 -9 -295 3 0 6 -3 6 -8 -1 -5 -8 -774
-11 -2742 -11 -1504 0 -2748 -3 -2765 -6 -16 -3 -57 -13 -90 -22 -33 -9 -69
-17 -80 -18 -11 -2 -24 -5 -30 -8 -5 -4 -35 -12 -65 -20 -30 -7 -67 -21 -82
-32 -16 -10 -28 -16 -28 -13 0 3 -11 -5 -25 -18 -13 -12 -43 -29 -66 -36 -22
-8 -43 -20 -46 -27 -3 -7 -9 -10 -14 -8 -9 6 -16 1 -91 -71 -27 -25 -48 -41
-48 -37 0 4 -5 0 -11 -10 -6 -9 -14 -15 -18 -13 -4 3 -16 -9 -26 -27 -10 -18
-38 -50 -61 -72 -23 -22 -59 -71 -79 -110 -21 -38 -45 -76 -53 -82 -9 -7 -12
-13 -7 -13 5 0 2 -6 -7 -12 -17 -14 -50 -106 -43 -119 3 -4 1 -10 -5 -14 -5
-3 -10 -15 -10 -26 0 -11 -5 -30 -12 -42 -7 -12 -13 -40 -14 -62 -2 -43 -12
-94 -20 -107 -16 -25 -23 -255 -9 -278 3 -5 8 -20 11 -32 9 -40 12 -53 14 -53
1 0 3 -13 5 -30 4 -30 8 -48 17 -75 3 -8 11 -35 18 -60 15 -52 47 -116 72
-143 9 -11 22 -33 29 -51 7 -17 19 -35 26 -39 7 -4 13 -14 13 -21 0 -8 23 -34
51 -60 28 -25 47 -46 42 -46 -9 0 83 -87 117 -110 12 -8 31 -23 43 -33 30 -26
152 -82 170 -79 4 1 7 -2 7 -7 0 -4 21 -16 48 -25 26 -10 56 -21 67 -26 11 -5
27 -8 35 -8 8 0 26 -3 40 -6 99 -24 330 -32 760 -25 8 0 32 -2 53 -3 20 -2 37
-1 37 2 0 3 14 5 30 5 17 0 30 -3 30 -7 0 -4 13 -3 30 2 16 5 32 5 35 0 3 -5
18 -5 33 0 16 4 36 4 45 -2 10 -5 17 -5 17 -1 0 4 14 8 30 8 17 0 30 -3 30 -6
0 -4 18 -3 40 1 22 4 42 5 45 2 7 -7 915 -5 922 2 3 3 12 1 20 -6 12 -9 9 -16
-15 -38 -16 -15 -57 -59 -91 -98 -34 -40 -68 -72 -76 -72 -8 0 -14 -4 -12 -9
3 -11 -41 -60 -78 -86 -33 -24 -44 -34 -69 -69 -10 -14 -25 -26 -32 -26 -8 0
-14 -4 -14 -10 0 -5 -6 -10 -12 -10 -7 -1 -29 -21 -48 -45 -19 -25 -42 -48
-52 -50 -9 -3 -19 -13 -22 -21 -3 -8 -10 -12 -16 -9 -5 3 -10 2 -10 -3 0 -12
-181 -197 -227 -232 -18 -14 -33 -29 -33 -34 0 -5 -13 -22 -30 -38 -16 -15
-30 -26 -30 -22 0 3 -10 -6 -22 -21 -50 -59 -112 -120 -120 -118 -4 2 -8 -1
-8 -7 0 -13 -107 -119 -114 -112 -3 3 -6 1 -6 -5 0 -5 -11 -23 -25 -39 -14
-16 -25 -33 -25 -38 0 -5 -3 -7 -6 -3 -3 3 -70 -58 -147 -136 -78 -78 -145
-141 -149 -140 -5 2 -8 -2 -8 -7 0 -18 -113 -120 -133 -120 -4 0 -5 -5 -2 -10
3 -6 -1 -10 -10 -10 -9 0 -13 -4 -10 -10 3 -5 0 -10 -7 -10 -7 0 -27 -15 -44
-34 -23 -24 -44 -36 -75 -41 -24 -4 -346 -8 -715 -10 -369 -1 -676 -5 -683 -9
-6 -4 -11 -3 -11 2 0 10 -30 9 -48 -2 -6 -4 -12 -4 -12 1 0 9 -152 9 -168 -1
-6 -3 -13 0 -15 6 -4 10 -8 9 -16 -2 -8 -12 -11 -12 -11 -1 0 10 -3 11 -14 2
-11 -9 -15 -9 -19 1 -4 11 -6 10 -6 0 -1 -7 -6 -10 -12 -7 -12 8 -119 12 -119
5 0 -6 -68 -5 -74 1 -2 2 -88 2 -191 -1 -111 -3 -190 -1 -196 5 -6 6 -9 6 -9
0 0 -11 -152 -11 -169 -1 -6 4 -11 4 -11 -1 0 -7 -29 -7 -135 -2 -5 1 -45 0
-87 -2 -43 -2 -80 -1 -83 2 -2 3 -29 2 -60 -1 -32 -4 -59 -2 -65 4 -6 6 -10 6
-10 1 0 -11 -82 -11 -99 -1 -6 4 -11 3 -11 -1 0 -10 -41 -10 -58 1 -7 4 -12 3
-12 -3 0 -7 -8 -7 -25 -1 -14 5 -25 6 -25 1 0 -5 -15 -5 -34 -1 -19 4 -46 6
-60 5 -14 -2 -26 2 -26 8 0 5 -2 8 -5 5 -8 -7 -75 58 -75 72 0 6 -4 8 -10 5
-5 -3 -10 2 -10 11 0 10 -3 15 -6 12 -7 -8 -192 175 -187 185 2 4 -3 10 -11
13 -9 3 -16 12 -16 19 0 8 -9 17 -20 20 -11 3 -20 11 -20 16 0 5 -13 22 -30
37 -16 16 -30 32 -30 37 0 4 -24 29 -52 56 -29 27 -49 49 -44 49 4 0 -17 24
-48 54 -31 29 -56 56 -56 60 0 8 -6 15 -50 66 -16 19 -30 30 -30 25 0 -6 -10
6 -22 25 -27 43 -94 110 -110 110 -6 0 -9 3 -5 6 8 8 -35 66 -85 117 -21 21
-38 42 -38 48 0 6 -4 7 -10 4 -5 -3 -10 -2 -10 3 0 4 -13 24 -30 42 -16 18
-30 37 -30 41 0 4 -9 11 -20 14 -11 3 -20 13 -20 21 0 8 -4 14 -8 14 -4 0 -15
12 -24 28 -20 34 -96 112 -109 112 -6 0 -7 5 -4 10 3 6 2 10 -3 10 -13 0 -11
30 2 31 6 0 20 3 31 5 11 3 26 6 33 6 6 1 12 5 12 10 0 4 7 8 15 8 8 0 24 9
35 20 11 11 22 20 25 20 2 0 21 11 41 25 20 14 40 22 45 19 5 -3 9 -1 9 4 0 6
10 12 23 16 12 3 34 17 50 31 15 14 27 23 27 20 0 -3 10 3 22 15 12 11 28 20
35 20 7 0 13 5 13 12 0 6 3 8 6 5 7 -6 52 22 88 55 11 10 24 18 28 18 5 0 6 4
3 10 -3 6 1 7 9 4 9 -3 16 -1 16 5 0 6 7 11 15 11 7 0 18 6 22 13 4 6 25 20
46 29 21 10 40 25 43 33 4 8 10 12 15 9 5 -3 9 0 9 5 0 6 19 23 42 37 49 31
68 49 68 62 0 6 4 12 9 14 13 5 108 88 144 126 17 17 34 32 38 32 11 0 71 62
65 67 -3 3 12 17 32 31 20 13 44 34 52 45 8 11 37 43 63 71 27 28 63 70 80 93
18 23 42 47 55 54 12 7 34 33 49 58 26 46 67 91 82 91 4 0 15 16 24 35 9 19
22 35 27 35 6 0 9 4 5 9 -3 6 3 14 12 20 10 6 15 11 11 11 -3 0 11 18 33 40
21 21 39 44 39 50 0 5 5 10 12 10 6 0 8 3 5 6 -10 10 54 94 66 87 6 -3 7 -2 4
4 -3 5 6 22 21 38 15 16 26 31 25 32 -5 6 31 73 39 73 4 0 8 8 8 17 0 9 3 13
7 10 8 -9 32 24 33 46 0 9 4 17 9 17 5 0 19 25 32 55 12 30 26 55 31 55 4 0 8
5 8 10 0 6 8 20 18 30 10 11 34 55 52 97 19 43 41 85 49 93 17 17 71 130 71
148 0 6 5 12 11 12 5 0 8 4 4 9 -3 5 -1 12 4 16 6 3 7 13 4 22 -4 10 -2 14 4
10 6 -4 16 7 23 23 7 16 16 28 20 25 5 -3 7 3 5 12 -1 10 2 24 8 31 5 6 6 12
1 12 -5 0 -4 4 1 8 6 4 26 53 45 110 18 56 39 102 45 102 7 0 12 6 13 13 1 15
5 28 26 101 10 32 20 66 21 75 2 9 4 16 5 16 3 0 11 39 13 60 1 11 6 23 11 27
9 6 15 24 19 61 1 10 7 21 13 25 7 4 18 34 25 67 14 67 14 65 22 85 3 8 6 22
7 30 3 42 8 77 13 90 3 8 8 36 12 62 3 26 10 50 15 53 5 3 9 13 9 23 3 58 10
114 15 119 3 4 7 0 7 -8 1 -8 5 9 10 36 4 28 10 68 14 90 4 22 8 65 9 95 2 30
6 62 9 70 4 8 6 36 4 62 -1 26 0 49 4 50 26 11 28 928 1 972 -3 5 -7 48 -9 95
-5 120 -10 195 -13 201 -2 3 -4 19 -5 35 -2 17 -4 35 -5 40 -7 24 -8 32 -9 73
-1 26 -5 41 -11 37 -11 -7 -11 -5 -13 72 -1 28 -5 49 -8 47 -7 -4 -29 65 -29
93 0 11 -3 23 -7 26 -3 4 -8 17 -9 30 -3 21 -5 34 -17 100 -3 15 -12 41 -21
57 -8 17 -10 28 -5 25 15 -10 11 3 -26 81 -19 40 -35 83 -35 94 0 11 -4 20 -9
20 -4 0 -8 10 -8 23 0 12 -3 29 -6 37 -10 26 -31 105 -29 113 1 4 -3 7 -9 7
-5 0 -7 5 -4 10 3 6 -1 10 -9 10 -9 0 -16 6 -16 13 -1 6 -9 30 -20 52 -10 22
-16 43 -14 47 3 5 1 8 -3 8 -5 0 -9 8 -10 18 -1 9 -7 31 -14 47 -7 17 -11 36
-10 43 1 6 -3 12 -9 12 -5 0 -10 6 -10 13 0 8 -9 22 -20 32 -11 10 -20 26 -20
37 0 10 -4 18 -9 18 -4 0 -14 20 -21 45 -7 25 -17 48 -21 51 -5 3 -9 14 -9 25
0 10 -4 19 -10 19 -5 0 -10 6 -10 14 0 7 -11 25 -25 40 -14 15 -25 32 -25 37
0 6 -5 20 -12 32 -7 12 -13 28 -14 36 -2 8 -9 18 -16 22 -7 5 -8 9 -3 9 7 0 7
3 0 8 -6 4 -19 24 -30 44 -10 20 -22 35 -27 32 -4 -3 -10 7 -14 21 -3 14 -11
25 -17 25 -6 0 -7 3 -4 6 3 4 1 16 -5 28 -7 11 -11 24 -10 29 1 4 -2 7 -8 7
-5 0 -10 6 -10 13 0 7 -18 32 -40 56 -22 23 -40 49 -40 57 0 8 -3 14 -8 14 -4
0 -13 14 -21 31 -7 17 -30 48 -50 69 -20 21 -47 58 -61 81 -13 24 -41 60 -62
80 -21 20 -38 42 -38 50 0 19 -72 99 -89 99 -8 0 -12 3 -8 6 6 6 -41 76 -55
82 -5 2 -8 8 -8 14 0 6 -55 65 -122 132 -68 66 -122 122 -120 123 1 2 -4 11
-13 19 -8 9 -15 13 -15 10 0 -3 -42 36 -93 87 -93 92 -112 109 -242 211 -88
70 -101 79 -152 116 -24 17 -43 35 -43 40 0 6 -6 10 -14 10 -7 0 -19 7 -26 15
-7 8 -16 13 -20 10 -4 -3 -10 2 -14 10 -3 8 -11 15 -18 15 -7 0 -31 16 -53 35
-22 19 -43 35 -46 35 -3 0 -16 9 -29 20 -13 11 -29 20 -37 20 -7 0 -13 5 -13
11 0 5 -4 7 -10 4 -5 -3 -10 -1 -10 4 0 6 -5 11 -10 11 -6 0 -23 11 -37 24
-15 14 -42 33 -62 43 -20 10 -38 21 -39 26 -2 4 -8 5 -13 1 -5 -3 -9 0 -9 6 0
6 -4 9 -8 6 -5 -3 -23 8 -41 25 -18 16 -36 27 -41 24 -4 -3 -10 1 -13 8 -3 7
-24 19 -48 27 -24 8 -46 17 -49 20 -3 3 -22 14 -42 25 -21 11 -38 23 -38 28 0
4 -4 5 -10 2 -5 -3 -10 -2 -10 3 0 4 -16 14 -35 22 -19 8 -35 17 -35 22 0 4
-3 7 -7 6 -13 -4 -103 33 -103 43 0 4 -6 6 -13 3 -7 -2 -22 4 -33 14 -11 11
-38 25 -60 32 -21 7 -43 15 -49 19 -5 3 -12 6 -15 7 -21 4 -67 18 -75 23 -5 3
-12 6 -15 6 -3 1 -25 11 -50 24 -25 13 -46 23 -48 22 -1 -1 -19 6 -39 14 -20
9 -43 13 -50 11 -7 -3 -13 -2 -13 3 0 4 -6 8 -12 9 -7 0 -33 6 -58 12 -25 7
-52 13 -61 15 -9 2 -36 13 -60 24 -23 12 -49 21 -56 21 -8 0 -12 3 -10 8 3 4
-14 8 -36 9 -58 3 -67 5 -67 13 0 4 -31 11 -70 14 -38 4 -72 11 -74 15 -3 4
-21 7 -41 6 -19 -1 -38 2 -41 7 -3 4 -9 6 -13 3 -5 -2 -22 0 -40 5 -17 5 -53
11 -79 15 -26 3 -54 7 -62 9 -56 11 -116 20 -122 18 -5 -1 -8 1 -8 6 0 8 -45
10 -375 18 -421 11 -595 13 -1382 15 -568 1 -793 5 -793 13 0 8 -2 8 -8 0 -4
-6 -29 -11 -57 -11 -27 0 -53 5 -57 11 -6 8 -8 8 -8 0 0 -15 -70 -14 -70 1 0
6 -3 6 -8 -1 -9 -14 -85 -13 -94 1 -5 7 -8 6 -8 -1 0 -17 -1230 -16 -1230 0 0
8 -3 8 -8 0 -9 -13 -174 -15 -165 -1 4 6 1 7 -8 1 -20 -13 -190 -13 -182 -1 4
6 1 7 -8 1 -21 -13 -92 -14 -108 -1 -11 9 -13 9 -8 0 8 -12 -39 -13 -59 0 -6
3 -14 3 -18 0 -12 -12 -36 -12 -36 0 0 8 -3 8 -8 2 -8 -12 -22 -13 -39 -2 -6
4 -14 3 -17 -2 -7 -10 -25 -9 -43 2 -6 4 -14 3 -17 -2 -7 -10 -31 -9 -42 2 -4
3 -16 1 -28 -5 -25 -14 -26 -13 -37 4 -5 7 -9 9 -9 3z m4385 -3168 c68 -12 99
-18 107 -23 4 -3 8 0 8 7 0 8 4 8 15 -1 9 -7 28 -14 43 -16 57 -5 117 -16 127
-23 5 -5 17 -9 25 -9 76 -6 270 -78 270 -101 0 -4 6 -8 13 -9 25 -1 56 -11 86
-26 17 -9 33 -16 36 -16 5 0 18 -9 48 -36 7 -6 17 -13 22 -15 6 -2 26 -14 45
-26 19 -12 40 -23 45 -25 6 -1 21 -12 35 -24 56 -50 73 -64 79 -64 11 0 211
-185 211 -195 0 -2 12 -16 28 -32 43 -46 72 -83 64 -83 -4 0 5 -11 21 -24 15
-13 27 -26 27 -30 0 -4 5 -12 10 -19 17 -20 98 -149 117 -187 10 -19 23 -38
28 -42 6 -4 6 -8 2 -8 -5 0 -2 -12 6 -27 29 -57 57 -121 57 -132 0 -7 4 -10 9
-7 9 6 36 -79 32 -101 -1 -7 3 -13 8 -13 6 0 9 -10 7 -22 -2 -13 1 -32 7 -43
9 -18 23 -75 30 -128 1 -10 7 -21 13 -25 6 -4 11 -32 12 -62 0 -30 1 -55 3
-55 5 0 8 -73 8 -210 0 -198 -1 -209 -13 -217 -8 -5 -7 -8 1 -8 9 0 10 -7 5
-22 -5 -13 -7 -34 -5 -48 3 -35 -6 -72 -16 -65 -9 5 -12 -11 -26 -118 -4 -26
-10 -45 -14 -42 -5 2 -7 -12 -6 -33 1 -20 -2 -43 -8 -49 -5 -7 -7 -20 -3 -28
3 -8 1 -15 -3 -15 -5 0 -12 -18 -16 -40 -4 -22 -11 -40 -16 -40 -13 0 -66
-123 -61 -142 1 -5 -3 -8 -8 -8 -5 0 -9 -4 -7 -8 3 -12 -45 -112 -53 -107 -3
2 -15 -10 -25 -28 -11 -18 -17 -32 -15 -32 9 0 -55 -93 -81 -117 -16 -14 -30
-32 -31 -40 -2 -7 -11 -19 -20 -26 -10 -7 -18 -18 -18 -23 0 -12 -99 -109
-112 -109 -4 0 -7 -4 -5 -8 1 -4 -10 -23 -25 -41 -16 -18 -28 -30 -28 -26 0 6
-70 -45 -98 -72 -7 -7 -18 -13 -23 -13 -5 0 -8 -6 -6 -12 1 -7 -4 -12 -10 -11
-7 2 -13 -1 -13 -7 0 -5 -17 -17 -37 -27 -21 -9 -40 -20 -43 -24 -3 -3 -15 -9
-27 -13 -13 -4 -23 -14 -23 -22 0 -8 -5 -12 -10 -9 -6 3 -13 0 -16 -8 -3 -9
-16 -18 -30 -21 -13 -4 -24 -11 -24 -16 0 -5 -9 -7 -20 -5 -11 2 -22 -1 -25
-6 -4 -5 -11 -7 -16 -4 -5 4 -9 1 -9 -4 0 -6 -3 -10 -7 -9 -15 3 -83 -31 -83
-41 0 -6 -3 -10 -7 -10 -5 1 -11 0 -15 -1 -9 -3 -13 -4 -53 -15 -16 -4 -34
-10 -40 -14 -10 -6 -26 -9 -85 -14 -19 -1 -39 -5 -45 -8 -5 -4 -26 -9 -45 -13
-19 -3 -46 -9 -60 -12 -14 -3 -34 -7 -45 -8 -11 -2 -20 -4 -20 -6 0 -6 -434
-15 -465 -10 -38 7 -180 3 -180 -5 0 -7 -3 -7 -8 0 -4 7 -415 10 -1199 10
-1067 -1 -1192 1 -1195 15 -3 13 -2 3675 1 3706 1 8 404 10 1429 9 785 -2
1441 -5 1457 -8z"/>
</g>
</svg>
